<svg xmlns="http://www.w3.org/2000/svg" width="178" height="173" viewBox="0 0 178 173" fill="none"><path d="M174.998 13.8465C173.942 15.0384 174.078 16.8432 175.27 17.9329C176.462 18.9886 178.301 18.9205 179.357 17.7286C180.412 16.5367 180.276 14.7319 179.084 13.6422C177.858 12.5865 176.054 12.6546 174.998 13.8465Z" fill="#06346F"></path><path d="M161.99 2.23324C160.934 3.42512 161.071 5.2299 162.262 6.31962C163.454 7.37528 165.293 7.30718 166.349 6.1153C167.405 4.92342 167.268 3.11864 166.077 2.02892C164.851 0.973259 163.012 1.04136 161.99 2.23324Z" fill="#06346F"></path><path d="M173.969 40.0358C172.913 41.2277 173.049 43.0325 174.241 44.1222C175.433 45.1778 177.272 45.1097 178.327 43.9179C179.383 42.726 179.247 40.9212 178.055 39.8315C176.863 38.7758 175.024 38.878 173.969 40.0358Z" fill="#06346F"></path><path d="M160.961 28.4225C159.905 29.6144 160.041 31.4192 161.233 32.5089C162.425 33.5646 164.264 33.4965 165.32 32.3046C166.375 31.1127 166.239 29.3079 165.047 28.2182C163.855 27.1625 162.016 27.2647 160.961 28.4225Z" fill="#06346F"></path><path d="M147.953 16.8444C146.897 18.0363 147.034 19.8411 148.225 20.9308C149.417 21.9865 151.256 21.9184 152.312 20.7265C153.367 19.5346 153.231 17.7298 152.039 16.6401C150.848 15.5504 149.009 15.6525 147.953 16.8444Z" fill="#06346F"></path><path d="M134.943 5.23114C133.888 6.42302 134.024 8.2278 135.216 9.31752C136.408 10.3732 138.246 10.3051 139.302 9.11321C140.358 7.92133 140.222 6.11655 139.03 5.02683C137.804 3.93711 135.999 4.03926 134.943 5.23114Z" fill="#06346F"></path><path d="M172.976 66.2547C171.921 67.4466 172.057 69.2515 173.249 70.3412C174.441 71.3969 176.28 71.3288 177.335 70.1369C178.391 68.945 178.255 67.1401 177.063 66.0504C175.871 64.9947 174.032 65.0628 172.976 66.2547Z" fill="#06346F"></path><path d="M159.967 54.6432C158.911 55.8351 159.047 57.64 160.239 58.7297C161.431 59.7854 163.27 59.7173 164.325 58.5254C165.381 57.3335 165.245 55.5286 164.053 54.4389C162.827 53.3832 161.022 53.4854 159.967 54.6432Z" fill="#06346F"></path><path d="M146.959 43.0319C145.903 44.2238 146.039 46.0286 147.231 47.1183C148.423 48.174 150.262 48.1059 151.318 46.914C152.373 45.7221 152.237 43.9172 151.045 42.8275C149.819 41.7719 148.014 41.8741 146.959 43.0319Z" fill="#06346F"></path><path d="M133.951 31.4186C132.895 32.6105 133.032 34.4153 134.223 35.505C135.415 36.5607 137.254 36.4926 138.31 35.3007C139.366 34.1088 139.229 32.304 138.037 31.2143C136.812 30.1586 135.007 30.2608 133.951 31.4186Z" fill="#06346F"></path><path d="M120.908 19.8053C119.852 20.9972 119.989 22.802 121.18 23.8917C122.372 24.9474 124.211 24.8793 125.267 23.6874C126.323 22.4955 126.186 20.6907 124.994 19.601C123.803 18.5454 121.964 18.6475 120.908 19.8053Z" fill="#06346F"></path><path d="M107.9 8.194C106.845 9.38588 106.981 11.1907 108.173 12.2804C109.365 13.336 111.203 13.2679 112.259 12.0761C113.315 10.8842 113.179 9.07941 111.987 7.98969C110.795 6.93402 108.956 7.03618 107.9 8.194Z" fill="#06346F"></path><path d="M94.8905 -3.41733C93.8348 -2.22545 93.971 -0.420562 95.1629 0.669156C96.3548 1.72482 98.1937 1.65672 99.2493 0.464842C100.305 -0.727036 100.169 -2.53192 98.9769 -3.62164C97.785 -4.6773 95.9461 -4.57515 94.8905 -3.41733Z" fill="#06346F"></path><path d="M171.947 92.4754C170.891 93.6673 171.028 95.4721 172.22 96.5618C173.411 97.6175 175.25 97.5494 176.306 96.3575C177.362 95.1656 177.225 93.3608 176.034 92.2711C174.808 91.2154 173.003 91.2835 171.947 92.4754Z" fill="#06346F"></path><path d="M158.939 80.8641C157.884 82.056 158.02 83.8609 159.212 84.9506C160.404 86.0062 162.242 85.9381 163.298 84.7463C164.354 83.5544 164.218 81.7495 163.026 80.6598C161.8 79.6041 159.995 79.6722 158.939 80.8641Z" fill="#06346F"></path><path d="M145.896 69.2508C144.841 70.4427 144.977 72.2476 146.169 73.3373C147.361 74.393 149.2 74.3249 150.255 73.133C151.311 71.9411 151.175 70.1362 149.983 69.0465C148.791 67.9908 146.952 68.0589 145.896 69.2508Z" fill="#06346F"></path><path d="M132.888 57.6395C131.833 58.8314 131.969 60.6363 133.161 61.726C134.353 62.7816 136.192 62.7135 137.247 61.5217C138.303 60.3298 138.167 58.5249 136.975 57.4352C135.783 56.3795 133.944 56.4476 132.888 57.6395Z" fill="#06346F"></path><path d="M119.879 46.0262C118.823 47.2181 118.959 49.023 120.151 50.1127C121.343 51.1684 123.182 51.1003 124.238 49.9084C125.293 48.7165 125.157 46.9116 123.965 45.8219C122.773 44.7662 120.934 44.8343 119.879 46.0262Z" fill="#06346F"></path><path d="M106.871 34.4149C105.815 35.6068 105.951 37.4116 107.143 38.5014C108.335 39.557 110.174 39.4889 111.23 38.297C112.285 37.1052 112.149 35.3003 110.957 34.2106C109.731 33.1549 107.927 33.223 106.871 34.4149Z" fill="#06346F"></path><path d="M93.8612 22.8016C92.8055 23.9935 92.9417 25.7983 94.1336 26.888C95.3255 27.9436 97.1644 27.8755 98.22 26.6837C99.2757 25.4918 99.1395 23.687 97.9476 22.5973C96.7217 21.5416 94.9168 21.6097 93.8612 22.8016Z" fill="#06346F"></path><path d="M80.8534 11.1903C79.7977 12.3821 79.9339 14.1869 81.1258 15.2766C82.3177 16.3664 84.1566 16.2642 85.2122 15.0723C86.2679 13.8805 86.1317 12.0757 84.9398 10.986C83.7138 9.93029 81.909 9.99839 80.8534 11.1903Z" fill="#06346F"></path><path d="M67.8123 -0.421233C66.7567 0.770646 66.8929 2.57543 68.0848 3.66515C69.2766 4.72081 71.1155 4.65271 72.1712 3.46083C73.2269 2.26895 73.0907 0.464171 71.8988 -0.625547C70.7069 -1.68121 68.868 -1.57906 67.8123 -0.421233Z" fill="#06346F"></path><path d="M170.953 118.665C169.897 119.857 170.034 121.661 171.225 122.751C172.417 123.807 174.256 123.739 175.312 122.547C176.367 121.355 176.231 119.55 175.039 118.46C173.813 117.405 171.975 117.507 170.953 118.665Z" fill="#06346F"></path><path d="M157.91 107.087C156.854 108.278 156.991 110.083 158.182 111.173C159.374 112.229 161.213 112.161 162.269 110.969C163.325 109.777 163.188 107.972 161.996 106.882C160.805 105.793 158.966 105.895 157.91 107.087Z" fill="#06346F"></path><path d="M144.902 95.4733C143.847 96.6652 143.983 98.47 145.175 99.5597C146.366 100.615 148.205 100.547 149.261 99.3554C150.317 98.1635 150.181 96.3587 148.989 95.269C147.797 94.1793 145.958 94.2815 144.902 95.4733Z" fill="#06346F"></path><path d="M131.892 83.862C130.837 85.0539 130.973 86.8587 132.165 87.9484C133.357 89.004 135.196 88.9359 136.251 87.7441C137.307 86.5522 137.171 84.7474 135.979 83.6577C134.753 82.568 132.948 82.6701 131.892 83.862Z" fill="#06346F"></path><path d="M118.885 72.2487C117.829 73.4406 117.965 75.2455 119.157 76.3352C120.349 77.3909 122.188 77.3227 123.243 76.1308C124.299 74.9389 124.163 73.1341 122.971 72.0444C121.745 70.9547 119.94 71.0568 118.885 72.2487Z" fill="#06346F"></path><path d="M105.877 60.6374C104.821 61.8293 104.957 63.6342 106.149 64.7239C107.341 65.7795 109.18 65.7114 110.236 64.5196C111.291 63.3277 111.155 61.5228 109.963 60.4331C108.737 59.3434 106.932 59.4455 105.877 60.6374Z" fill="#06346F"></path><path d="M92.8338 49.0241C91.7781 50.216 91.9144 52.0209 93.1062 53.1106C94.2981 54.1663 96.137 54.0982 97.1927 52.9063C98.2483 51.7144 98.1121 49.9095 96.9203 48.8198C95.7284 47.7301 93.8895 47.8322 92.8338 49.0241Z" fill="#06346F"></path><path d="M79.824 37.4129C78.7684 38.6048 78.9046 40.4097 80.0965 41.4994C81.2884 42.5551 83.1272 42.487 84.1829 41.2951C85.2386 40.1032 85.1024 38.2983 83.9105 37.2086C82.7186 36.1529 80.8797 36.221 79.824 37.4129Z" fill="#06346F"></path><path d="M66.8162 25.7996C65.7606 26.9915 65.8968 28.7964 67.0887 29.8861C68.2805 30.9758 70.1194 30.8737 71.1751 29.6818C72.2308 28.4899 72.0946 26.685 70.9027 25.5953C69.7108 24.5397 67.8719 24.6078 66.8162 25.7996Z" fill="#06346F"></path><path d="M53.8084 14.1884C52.7528 15.3803 52.889 17.185 54.0809 18.2748C55.2727 19.3304 57.1116 19.2623 58.1673 18.0704C59.2229 16.8786 59.0868 15.0737 57.8949 13.984C56.6689 12.9283 54.8641 12.9965 53.8084 14.1884Z" fill="#06346F"></path><path d="M40.7987 2.57503C39.743 3.76691 39.8792 5.5717 41.0711 6.66141C42.263 7.71708 44.1019 7.64898 45.1575 6.4571C46.2132 5.26522 46.077 3.46044 44.8851 2.37072C43.6592 1.31506 41.8543 1.38316 40.7987 2.57503Z" fill="#06346F"></path><path d="M169.892 144.885C168.837 146.077 168.973 147.882 170.165 148.972C171.357 150.028 173.196 149.959 174.251 148.768C175.307 147.576 175.171 145.771 173.979 144.681C172.787 143.625 170.948 143.728 169.892 144.885Z" fill="#06346F"></path><path d="M156.885 133.272C155.829 134.464 155.965 136.269 157.157 137.359C158.349 138.414 160.188 138.346 161.243 137.154C162.299 135.962 162.163 134.157 160.971 133.068C159.745 132.012 157.94 132.114 156.885 133.272Z" fill="#06346F"></path><path d="M143.875 121.661C142.819 122.853 142.955 124.657 144.147 125.747C145.339 126.803 147.178 126.735 148.234 125.543C149.289 124.351 149.153 122.546 147.961 121.456C146.735 120.401 144.93 120.503 143.875 121.661Z" fill="#06346F"></path><path d="M130.867 110.049C129.811 111.241 129.948 113.046 131.139 114.136C132.331 115.192 134.17 115.123 135.226 113.932C136.282 112.74 136.145 110.935 134.953 109.845C133.728 108.789 131.923 108.892 130.867 110.049Z" fill="#06346F"></path><path d="M117.857 98.4362C116.802 99.6281 116.938 101.433 118.13 102.523C119.322 103.578 121.16 103.51 122.216 102.318C123.272 101.126 123.136 99.3216 121.944 98.2319C120.718 97.1762 118.879 97.2784 117.857 98.4362Z" fill="#06346F"></path><path d="M104.816 86.8249C103.761 88.0167 103.897 89.8216 105.089 90.9113C106.281 91.967 108.119 91.8989 109.175 90.707C110.231 89.5152 110.095 87.7103 108.903 86.6205C107.711 85.5649 105.872 85.667 104.816 86.8249Z" fill="#06346F"></path><path d="M91.8065 75.2116C90.7508 76.4035 90.887 78.2083 92.0789 79.2981C93.2708 80.3537 95.1097 80.2856 96.1653 79.0937C97.221 77.9019 97.0848 76.097 95.8929 75.0073C94.701 73.9516 92.8621 74.0538 91.8065 75.2116Z" fill="#06346F"></path><path d="M78.7987 63.6003C77.743 64.7921 77.8792 66.597 79.0711 67.6867C80.263 68.7424 82.1019 68.6743 83.1575 67.4824C84.2132 66.2905 84.077 64.4857 82.8851 63.3959C81.6592 62.3403 79.8543 62.4424 78.7987 63.6003Z" fill="#06346F"></path><path d="M65.7908 51.987C64.7352 53.1788 64.8714 54.9837 66.0633 56.0735C67.2552 57.1291 69.094 57.061 70.1497 55.8691C71.2054 54.6773 71.0692 52.8724 69.8773 51.7827C68.6514 50.727 66.8465 50.8291 65.7908 51.987Z" fill="#06346F"></path><path d="M52.7811 40.4089C51.7254 41.6008 51.8616 43.4056 53.0535 44.4954C54.2454 45.551 56.0843 45.4829 57.1399 44.291C58.1956 43.0992 58.0594 41.2943 56.8675 40.2046C55.6416 39.1148 53.8367 39.217 52.7811 40.4089Z" fill="#06346F"></path><path d="M39.7381 28.7956C38.6824 29.9875 38.8186 31.7924 40.0105 32.8821C41.2024 33.9377 43.0413 33.8696 44.097 32.6778C45.1526 31.4859 45.0164 29.681 43.8245 28.5913C42.6327 27.5016 40.7938 27.6037 39.7381 28.7956Z" fill="#06346F"></path><path d="M26.7303 17.1843C25.6746 18.3761 25.8108 20.181 27.0027 21.2708C28.1946 22.3264 30.0335 22.2583 31.0892 21.0664C32.1448 19.8746 32.0086 18.0697 30.8167 16.98C29.6249 15.8902 27.7859 15.9924 26.7303 17.1843Z" fill="#06346F"></path><path d="M13.7225 5.573C12.6668 6.76487 12.803 8.56966 13.9949 9.65937C15.1868 10.715 17.0257 10.6469 18.0814 9.45506C19.137 8.26318 19.0008 6.4583 17.8089 5.36858C16.617 4.27886 14.7781 4.38112 13.7225 5.573Z" fill="#06346F"></path></svg>